<svg width="60" height="40" xmlns="http://www.w3.org/2000/svg" viewBox="0 0 435.83 238.82"><defs><style>.cls-1{fill:#fff;}</style></defs><title>white</title><g id="Layer_2" data-name="Layer 2"><g id="Layer_1-2" data-name="Layer 1"><path class="cls-1" d="M106.88,9.52V229.09a9.52,9.52,0,0,1-9.52,9.52H78.91a9.52,9.52,0,0,1-9.52-9.52V66.1a9.52,9.52,0,0,0-9.52-9.52H39.71a9.52,9.52,0,0,1-9.52-9.52V35.47a9.5,9.5,0,0,1,4.73-8.22l44.52-26A9.58,9.58,0,0,1,84.23,0H97.36A9.52,9.52,0,0,1,106.88,9.52Z"/><path class="cls-1" d="M117.8,48.7V45.22h9V49.4c0,4.35,1.92,5.92,5,5.92s5-1.57,5-6.1c0-5-1.92-8.27-8.19-13.75-8-7.06-10.62-12-10.62-19,0-9.58,5-15.15,14.28-15.15s13.93,5.57,13.93,15.33v2.52h-9.05V16.05c0-4.36-1.74-6-4.79-6s-4.79,1.65-4.79,5.83c0,4.44,2,7.67,8.27,13.15,8,7.06,10.54,11.93,10.54,19.51,0,9.93-5.05,15.5-14.46,15.5S117.8,58.46,117.8,48.7Z"/><path class="cls-1" d="M159.33,10.91h-10V2.2h29.61v8.71h-10V63.16h-9.58Z"/><path class="cls-1" d="M162.48,148.05c-15.91-13.92-21-22.09-21-33.36,0-10.61,4.42-14.81,12.15-14.81s12.16,4.2,12.16,15.25v1.55a6.41,6.41,0,0,0,6.4,6.4h10.18a6.41,6.41,0,0,0,6.4-6.4h0c0-24.75-11.71-38.9-35.36-38.9s-36.24,14.15-36.24,38.45c0,17.68,6.63,30.28,27,48.18,15.91,13.92,20.77,22.09,20.77,34.91,0,11.49-4.86,15.47-12.59,15.47s-12.6-4-12.6-15v-4.2a6.41,6.41,0,0,0-6.4-6.4H123.14a6.41,6.41,0,0,0-6.4,6.4V198c0,24.75,11.93,38.9,35.8,38.9s36.68-14.15,36.68-39.34C189.22,178.33,182.81,166,162.48,148.05Z"/><path class="cls-1" d="M196.74,86.34v9.4a6.35,6.35,0,0,0,6.35,6.35H215.8a6.35,6.35,0,0,1,6.35,6.35V228.53a6.15,6.15,0,0,0,6.15,6.15h12a6.15,6.15,0,0,0,6.15-6.15V108.44a6.35,6.35,0,0,1,6.35-6.35h12.71a6.35,6.35,0,0,0,6.35-6.35v-9.4A6.35,6.35,0,0,0,265.52,80H203.09A6.35,6.35,0,0,0,196.74,86.34Z"/><path class="cls-1" d="M435.83,118.22v15.25c0,23.84-11.07,37.23-33.61,38.17-.72,0-1.45.05-2.19.05H307.75v1.82h.14v39.07h38.33a3.66,3.66,0,0,1,3.65,3.65V231a3.66,3.66,0,0,1-3.65,3.65H283.58v-148A6.67,6.67,0,0,1,290.25,80h55.46a4.16,4.16,0,0,1,4.16,4.16V97.93a4.16,4.16,0,0,1-4.16,4.16H307.89v39.25h-.14v8.32H400v-.07c7.46-.13,11.5-3.74,11.5-14.57V116.68c0-11.05-4.2-14.59-11.94-14.59H388.1l-.23,41.16a2.27,2.27,0,0,1-2.27,2.26H365.84a2.26,2.26,0,0,1-2.27-2.28L363.8,80h35.79C423.9,80,435.83,93.47,435.83,118.22Z"/><path class="cls-1" d="M363.8,179v55.72h24.3V179a3.58,3.58,0,0,0-3.58-3.58H367.38A3.58,3.58,0,0,0,363.8,179Z"/><path class="cls-1" d="M402.22,171.64v.05H400C400.77,171.69,401.5,171.67,402.22,171.64Z"/><path class="cls-1" d="M68.36,234.74v1c-1.71.72-3.53,1.08-5.21,1.9-.2.09-.49,0-.46.4H59.14A1.67,1.67,0,0,0,57,238H48.68c0-.05,0-.16,0-.17-1.26-.21-1.2-1.3-1.31-2.28a2.22,2.22,0,0,1,1.86-2.66c2.59-.29,4.37-2,5.93-4,.72-.91.31-2.21.26-3.33,0-.27-.31-.35-.54-.45a1.2,1.2,0,0,1-.66-1.56,6.43,6.43,0,0,1,.94-2.24c.41-.59.71-1.19.15-1.89a.63.63,0,0,1-.14-.44c.31-2.45-.84-4.6-1.15-6.92-.36-2.77-1.19-5.45-1.24-8.29,0-.72-.64-1.43-.65-2.15,0-1.7-1.06-2.56-2.08-3.51-1.78-1.64-2.46-3.9-2.93-6.26a3.16,3.16,0,0,0-.54-1.46c-1.24-1.59-1.51-3.66-2.3-5.46-1.61-3.65-2.51-7.65-4.6-11.06a15,15,0,0,0-1-1.56A11.51,11.51,0,0,1,37.11,170c-.62,2.12-1.35,4.2-2,6.32a63.62,63.62,0,0,1-1.84,6.29c-.49,1.17-.28,2.5-.54,3.74-.44,2.09-1.41,4-1.61,6.15,0,.25-.09.5-.13.75q-1,7-2,14c-.16,1.13-.27,2.28-.46,3.4a14.47,14.47,0,0,1-1.48,4.4,4.42,4.42,0,0,0-.26,4.18,2.51,2.51,0,0,1,.17,1.5,5.27,5.27,0,0,0,0,1.9,2.05,2.05,0,0,1-.49,1.58,1,1,0,0,0,0,1.28c.18.22.45.58.15.83-1,.83-.9,2-1,3.15a26.39,26.39,0,0,0,0,6.28,2,2,0,0,1-1.38,2.61,5.62,5.62,0,0,1-3.47.38,43.44,43.44,0,0,1-6.19-1.44,10,10,0,0,0-2.18-.28,33.07,33.07,0,0,1-4.9-.49,10.51,10.51,0,0,1-6.43-4c-.19-.28-.29-.76-.77-.66L0,230.18c.4-.24.36-.71.5-1.07s.35-1,.82-1.05a7.43,7.43,0,0,1,3.41-.24,14.63,14.63,0,0,0,4.8.61,5,5,0,0,0,4.4-2.17,3.17,3.17,0,0,1,1-1,1.3,1.3,0,0,0,.66-1.24,15.39,15.39,0,0,1,.49-3.11,2.67,2.67,0,0,0-.24-2.38,1.23,1.23,0,0,1,0-1.43,6.81,6.81,0,0,0,1.3-4,1.82,1.82,0,0,1,.15-.54,16,16,0,0,0,.63-4.25c0-1.94.09-3.88.18-5.82a7,7,0,0,1,.62-3,3.56,3.56,0,0,0,.21-2.66c-.1-.38-.37-.84-.07-1.19a2.55,2.55,0,0,0,.28-2.33c-.16-.87-.34-1.75.53-2.4a.94.94,0,0,0,.06-1.41,2,2,0,0,1-.05-2.62,2.23,2.23,0,0,0,.34-1.82c-.13-.69-.23-1.39-.38-2.06a1.27,1.27,0,0,1,.19-1.17,1.81,1.81,0,0,0,.32-1.35c-.09-1.06.21-2.16-.33-3.18a.78.78,0,0,1,.06-.55,5.87,5.87,0,0,0,.24-2.73,24.51,24.51,0,0,1-.13-3.53,2.47,2.47,0,0,0-.5-1.87,1,1,0,0,1-.15-1.06,32.35,32.35,0,0,0,1.35-8.26,9.48,9.48,0,0,0-.56-4.68,16.36,16.36,0,0,1-.81-3.33,1.76,1.76,0,0,1,.57-1.78,7.07,7.07,0,0,1,1.92-1.17,1.17,1.17,0,0,0,.53-1.91.79.79,0,0,1-.12-.56q.33,0,.66,0a25.23,25.23,0,0,0,.61-2.87A2.45,2.45,0,0,0,23.1,141a1.13,1.13,0,0,1-.25-1,26.56,26.56,0,0,1,1-4.34,2.45,2.45,0,0,0,.19-.93,35,35,0,0,0-.65-8.18,11.68,11.68,0,0,1-.14-4.37,1.65,1.65,0,0,0,0-.86,15.28,15.28,0,0,1-.9-5,74.23,74.23,0,0,0-1.57-9.49,5.51,5.51,0,0,1,.12-2.93.85.85,0,0,0,0-.73c-.94-1.81-.63-3.73-.38-5.62.36-2.74,1.27-5.15,3.47-6.83a3.73,3.73,0,0,0,1.32-2.81,1.17,1.17,0,0,0-.93-1.39,17.78,17.78,0,0,0-2.77-.6,1.53,1.53,0,0,1-1.48-1.56,39.16,39.16,0,0,0-.82-4.68c-.11-.43-.22-.81-.64-.93-.85-.25-.81-.89-.63-1.59a3.29,3.29,0,0,1,.78-1.37,1.68,1.68,0,0,0,.54-1.53,13,13,0,0,1,.9-7.33c.23-.62.89-1,.93-1.7.11-1.7,1.14-2.33,2.47-2.69a3.17,3.17,0,0,0,.75-.26,2.72,2.72,0,0,1,2-.22,1.6,1.6,0,0,0,1.92-.91h1.24c-.2.46.23.55.39.52.76-.2,1.61,0,2.29-.52a2.87,2.87,0,0,0,.85,1.4,13,13,0,0,1,3.43,7.16c.26,1.5,1,2.92.59,4.51A32.59,32.59,0,0,1,36,78.07a9.26,9.26,0,0,0-.47,3.47c0,.74.5,1,1,1.08A5.26,5.26,0,0,0,39,82.47c1-.32,1.19-.18,1.47.91a2.7,2.7,0,0,0,1,1.55,5.67,5.67,0,0,1,2.2,4.15,1.29,1.29,0,0,0,.63,1.16,2,2,0,0,1,.85.64c1.08,1.91,2.85,3,4.37,4.42A10.52,10.52,0,0,1,52.71,101a2.26,2.26,0,0,1,0,.86,11.16,11.16,0,0,0,.6,5.44,14.7,14.7,0,0,1,.89,7.66,3.78,3.78,0,0,0,.64,2.87c.72,1.09,1.44,2.34.46,3.75a1.23,1.23,0,0,0,0,1,6.14,6.14,0,0,0,.33.88,3.55,3.55,0,0,1-.9,4.67c-.11.1-.22.21-.34.3a4.29,4.29,0,0,0-1.94,3.4c-.16,2.15-.63,4.28-.94,6.42a1.54,1.54,0,0,1-1.25,1.29c-1.86.63-1.88.64-1.06,2.53a26.47,26.47,0,0,0,1.73,3.94c.7,1.1.57,2.58,1,3.85a7.12,7.12,0,0,1-.07,3.91,3.32,3.32,0,0,0,.21,2.23,2.4,2.4,0,0,1,0,1.86,5,5,0,0,0-.12,2.84c1.2,4.56,1.31,9.24,1.57,13.92.06,1.06,0,2.18.94,2.94a.52.52,0,0,1,.18.33c0,1.7,1.07,3,1.21,4.7a5.67,5.67,0,0,0,1,2.79,6.48,6.48,0,0,1,1.22,3,5.48,5.48,0,0,0,.7,2,35.22,35.22,0,0,1,3.32,10c.1.53.21,1.06.36,1.58a18.06,18.06,0,0,1,.66,7.09,1.1,1.1,0,0,0,.32,1,3.91,3.91,0,0,1,1.17,2.4,11.46,11.46,0,0,0,.28,1.59,2.16,2.16,0,0,1-.57,2.42A1.25,1.25,0,0,0,64,218a4.35,4.35,0,0,1,0,2.18,1.16,1.16,0,0,0,.69,1.45c.66.27.79.68.5,1.41-.5,1.25,0,2.44.38,3.62.09.35.45.64.41,1a6.3,6.3,0,0,0,1,3.43,9.09,9.09,0,0,1,.89,2.68C67.94,234.14,67.87,234.63,68.36,234.74Z"/></g></g></svg>